<svg xmlns="http://www.w3.org/2000/svg" width="128" height="128" viewBox="0 0 128 128" fill="none"><metadata><rdf:RDF xmlns:rdf="http://www.w3.org/1999/02/22-rdf-syntax-ns#" xmlns:dc="http://purl.org/dc/elements/1.1/"><rdf:Description><dc:creator>RealFaviconGenerator</dc:creator><dc:source>https://realfavicongenerator.net</dc:source></rdf:Description></rdf:RDF></metadata><g clip-path="url(#clip0_1029_5218)">
<rect width="128" height="128" fill="#171C33"></rect>
<path d="M10 19H22V61H10V19Z" fill="white"></path>
<path d="M72 19.0646L50.8746 38.5138H62.3119L70.3853 61H58.1407L51.3456 42.8431H46.0979L39.4373 49.0462V61H28V19H39.4373V37.5446L58.948 19.0646H72Z" fill="white"></path>
<path d="M105.8 61L103.333 51.7119H86.4667L83.8667 61H72L86.2667 17H104.2L118 61H105.8ZM88.4667 44.1864H101.4L95.2667 23.9153H94.6667L88.4667 44.1864Z" fill="white"></path>
<path d="M27.5146 110.945C23.3985 110.945 19.8705 110.21 16.9304 108.74C14.0271 107.233 11.8037 105.12 10.2602 102.4C8.75339 99.6441 8 96.4101 8 92.6983C8 89.1334 8.56964 86.0831 9.70891 83.5473C10.8849 80.9748 12.4285 78.88 14.3395 77.263C16.2505 75.6092 18.3637 74.3964 20.679 73.6246C22.9943 72.8161 25.328 72.4119 27.68 72.4119C30.7671 72.4119 33.4131 72.8712 35.6182 73.79C37.8232 74.672 39.5137 75.8297 40.6897 77.263C41.8658 78.6962 42.4538 80.1846 42.4538 81.7282C42.4538 83.382 42.1414 84.6682 41.5166 85.587C40.9286 86.5058 40.1569 87.1489 39.2013 87.5164C38.2826 87.8839 37.3271 88.0677 36.3348 88.0677C35.0853 88.0677 34.093 87.939 33.358 87.6818C32.6597 87.3878 31.9431 87.1121 31.2081 86.8549C30.4731 86.5976 29.4808 86.469 28.2313 86.469C25.8425 86.469 23.9314 87.1856 22.4982 88.6189C21.1016 90.0522 20.4034 92.1102 20.4034 94.793C20.4034 96.3733 20.7341 97.678 21.3956 98.707C22.0571 99.736 22.9208 100.508 23.9866 101.022C25.0891 101.537 26.2651 101.794 27.5146 101.794C28.7641 101.794 29.7932 101.647 30.6017 101.353C31.4469 101.022 32.0717 100.673 32.476 100.306C32.8802 99.9381 33.0824 99.6625 33.0824 99.4788C30.6201 99.4788 28.6355 99.2031 27.1287 98.6519C25.622 98.0639 24.8686 96.943 24.8686 95.2892C24.8686 93.8927 25.3647 92.735 26.357 91.8162C27.3492 90.8607 29.1868 90.383 31.8696 90.383C34.4789 90.383 36.5185 90.6953 37.9886 91.3201C39.4954 91.9081 40.5427 92.8453 41.1308 94.1315C41.7555 95.4178 42.0679 97.09 42.0679 99.148C42.0679 101.353 41.4064 103.356 40.0834 105.157C38.7603 106.958 36.9963 108.391 34.7913 109.457C32.5862 110.486 30.1607 110.982 27.5146 110.945Z" fill="#DBFF9D"></path>
<path d="M63.018 111C59.7839 111 56.9541 110.449 54.5285 109.346C52.103 108.244 50.0633 106.737 48.4095 104.826C46.7925 102.915 45.5797 100.747 44.7712 98.3211C43.9627 95.8588 43.5585 93.2863 43.5585 90.6035C43.5585 89.0967 43.6136 87.5164 43.7238 85.8626C43.8341 84.1721 44.0546 82.5367 44.3853 80.9564C44.7161 79.3761 45.1939 77.9428 45.8186 76.6566C46.4801 75.3703 47.3254 74.3413 48.3544 73.5695C49.3834 72.7977 50.6697 72.4119 52.2132 72.4119C54.1978 72.4119 55.7229 72.8345 56.7887 73.6798C57.8912 74.4883 58.663 75.5173 59.104 76.7668C59.545 78.0163 59.7655 79.3026 59.7655 80.6256C59.7655 82.1324 59.692 83.4003 59.545 84.4293C59.398 85.4584 59.251 86.469 59.104 87.4613C58.957 88.4168 58.8835 89.6112 58.8835 91.0445C58.8835 92 58.9938 92.9923 59.2143 94.0213C59.4715 95.0503 59.8941 95.9139 60.4822 96.6122C61.0702 97.2737 61.9154 97.6045 63.018 97.6045C64.1572 97.6045 65.0209 97.2737 65.6089 96.6122C66.1969 95.9139 66.6011 95.0503 66.8217 94.0213C67.0422 92.9923 67.1524 92 67.1524 91.0445C67.1524 89.6112 67.0789 88.4168 66.9319 87.4613C66.7849 86.469 66.6379 85.4584 66.4909 84.4293C66.3439 83.4003 66.2704 82.1324 66.2704 80.6256C66.2704 79.3026 66.4909 78.0163 66.9319 76.7668C67.3729 75.5173 68.1447 74.4883 69.2472 73.6798C70.3497 72.8345 71.8749 72.4119 73.8227 72.4119C75.3662 72.4119 76.6525 72.7977 77.6815 73.5695C78.7105 74.3413 79.5374 75.3703 80.1622 76.6566C80.8237 77.9428 81.3198 79.3761 81.6506 80.9564C81.9813 82.5367 82.2018 84.1721 82.3121 85.8626C82.4223 87.5164 82.4774 89.0967 82.4774 90.6035C82.4774 93.2863 82.0732 95.8588 81.2647 98.3211C80.4562 100.747 79.225 102.915 77.5712 104.826C75.9542 106.737 73.9329 108.244 71.5074 109.346C69.0818 110.449 66.252 111 63.018 111Z" fill="#DBFF9D"></path>
<path d="M101.942 111C100.84 111 99.7738 110.761 98.7448 110.283C97.7525 109.769 96.9256 109.034 96.2641 108.078C95.6394 107.123 95.327 105.947 95.327 104.55C95.327 103.632 95.3454 102.805 95.3821 102.07C91.8908 101.151 89.0426 99.4236 86.8376 96.8878C84.6693 94.3153 83.5851 90.8791 83.5851 86.5793C83.5851 82.3162 84.3018 78.9167 85.7351 76.3809C87.1683 73.8084 89.355 72.5221 92.2951 72.5221C94.3163 72.5221 95.9334 73.1285 97.1461 74.3413C98.3957 75.5541 99.0204 77.263 99.0204 79.468C99.0204 80.6808 98.9286 81.8935 98.7448 83.1063C98.5978 84.3191 98.5243 85.293 98.5243 86.028C98.5243 87.498 98.7815 88.6557 99.2961 89.5009C99.8106 90.3462 100.693 90.7688 101.942 90.7688C103.228 90.7688 104.11 90.3462 104.588 89.5009C105.103 88.6557 105.36 87.498 105.36 86.028C105.36 85.293 105.268 84.3007 105.084 83.0512C104.937 81.7649 104.864 80.5521 104.864 79.4129C104.864 77.2446 105.489 75.5541 106.738 74.3413C107.988 73.1285 109.623 72.5221 111.644 72.5221C113.629 72.5221 115.264 73.0918 116.551 74.231C117.837 75.3703 118.792 76.9506 119.417 78.9719C120.042 80.9932 120.354 83.3084 120.354 85.9177C120.354 90.6586 119.197 94.352 116.881 96.9981C114.603 99.6074 111.626 101.335 107.951 102.18C107.988 102.878 108.006 103.668 108.006 104.55C108.006 105.984 107.712 107.178 107.124 108.134C106.536 109.089 105.783 109.806 104.864 110.283C103.945 110.761 102.971 111 101.942 111Z" fill="#DBFF9D"></path>
</g><defs>
<clipPath id="clip0_1029_5218">
<rect width="128" height="128" fill="white"></rect>
</clipPath>
</defs></svg>