<svg width="80.5532" height="27.6762" overflow="visible" style="display: block;" viewBox="0 0 80.5532 27.6762" fill="none" xmlns="http://www.w3.org/2000/svg">
<g id="I KNOW A GUY">
<path d="M1.15765 0.154352H4.51482V12.6762H1.15765V0.154352Z" fill="white"/>
<path d="M24.1591 0.154352L18.1007 5.96188H21.3807L23.696 12.6762H20.1845L18.2358 7.25459H16.7309L14.8207 9.10682V12.6762H11.5407V0.135058H14.8207V5.67247L20.416 0.154352H24.1591Z" fill="white"/>
<path d="M38.303 0.154352V12.6762H33.1901L28.7332 3.58871V12.6762H25.3953V0.154352H30.5275L34.9652 9.39624V0.154352H38.303Z" fill="white"/>
<path d="M39.9908 6.40565C39.9908 1.71718 43.348 0 47.0525 0C50.8148 0 54.1141 1.69788 54.1141 6.40565C54.1141 11.1327 50.7955 12.8113 47.0525 12.8113C43.348 12.8113 39.9908 11.1134 39.9908 6.40565ZM47.0525 10.1101C49.1748 10.1101 50.7569 9.29976 50.7569 6.40565C50.7569 3.53082 49.1748 2.70118 47.0525 2.70118C44.9494 2.70118 43.348 3.53082 43.348 6.40565C43.348 9.29976 44.9494 10.1101 47.0525 10.1101Z" fill="white"/>
<path d="M57.8827 0.154352L61.7222 10.2452H61.8765L65.7354 0.154352H69.3819L73.2215 10.2452H73.3758L77.2346 0.154352H80.5532L75.9227 12.6762H70.7132L67.4911 4.39906L64.4234 12.6762H59.2139L54.3325 0.154352H57.8827Z" fill="white"/>
<path d="M9.78212 27.6762L9.06824 25.0329H4.18682L3.43435 27.6762H0L4.12894 15.1544H9.31906L13.3129 27.6762H9.78212ZM4.76565 22.8913H8.50871L6.73365 17.1224H6.56L4.76565 22.8913Z" fill="white"/>
<path d="M24.9402 27.6569C23.4996 27.6569 22.2648 27.3997 21.2357 26.8852C20.2196 26.3578 19.4414 25.6182 18.9011 24.6664C18.3738 23.7016 18.1101 22.5697 18.1101 21.2706C18.1101 20.0229 18.3095 18.9553 18.7082 18.0678C19.1198 17.1674 19.6601 16.4342 20.3289 15.8682C20.9978 15.2894 21.7374 14.8649 22.5477 14.5948C23.3581 14.3118 24.1749 14.1704 24.9981 14.1704C26.0786 14.1704 27.0047 14.3311 27.7764 14.6527C28.5482 14.9614 29.1399 15.3666 29.5515 15.8682C29.9631 16.3699 30.1689 16.8908 30.1689 17.4311C30.1689 18.0099 30.0596 18.4601 29.8409 18.7816C29.6351 19.1032 29.365 19.3283 29.0306 19.4569C28.709 19.5856 28.3746 19.6499 28.0273 19.6499C27.5899 19.6499 27.2426 19.6049 26.9854 19.5148C26.741 19.4119 26.4902 19.3154 26.2329 19.2254C25.9757 19.1354 25.6284 19.0904 25.191 19.0904C24.355 19.0904 23.6861 19.3412 23.1844 19.8428C22.6957 20.3445 22.4513 21.0648 22.4513 22.0038C22.4513 22.5569 22.567 23.0135 22.7986 23.3736C23.0301 23.7338 23.3324 24.0039 23.7054 24.184C24.0913 24.3641 24.5029 24.4541 24.9402 24.4541C25.3775 24.4541 25.7377 24.4027 26.0207 24.2998C26.3165 24.184 26.5352 24.0618 26.6767 23.9332C26.8182 23.8045 26.8889 23.7081 26.8889 23.6438C26.0271 23.6438 25.3325 23.5473 24.8051 23.3544C24.2778 23.1485 24.0141 22.7562 24.0141 22.1774C24.0141 21.6886 24.1877 21.2835 24.535 20.9619C24.8823 20.6275 25.5255 20.4602 26.4644 20.4602C27.3777 20.4602 28.0916 20.5696 28.6061 20.7882C29.1335 20.994 29.5001 21.322 29.7059 21.7722C29.9245 22.2224 30.0339 22.8077 30.0339 23.528C30.0339 24.2998 29.8023 25.0008 29.3393 25.6311C28.8762 26.2613 28.2588 26.763 27.487 27.136C26.7153 27.4962 25.8663 27.6698 24.9402 27.6569Z" fill="#DBFF9D"/>
<path d="M37.3664 27.6762C36.2345 27.6762 35.244 27.4833 34.3951 27.0974C33.5461 26.7115 32.8323 26.1842 32.2534 25.5153C31.6875 24.8464 31.263 24.0875 30.98 23.2386C30.697 22.3768 30.5555 21.4764 30.5555 20.5374C30.5555 20.01 30.5748 19.4569 30.6134 18.8781C30.652 18.2864 30.7292 17.714 30.845 17.1609C30.9607 16.6078 31.1279 16.1062 31.3466 15.656C31.5781 15.2058 31.874 14.8456 32.2341 14.5755C32.5943 14.3054 33.0445 14.1704 33.5847 14.1704C34.2793 14.1704 34.8131 14.3183 35.1861 14.6141C35.572 14.8971 35.8421 15.2573 35.9965 15.6946C36.1508 16.1319 36.228 16.5821 36.228 17.0452C36.228 17.5725 36.2023 18.0163 36.1508 18.3765C36.0994 18.7366 36.0479 19.0904 35.9965 19.4376C35.945 19.7721 35.9193 20.1901 35.9193 20.6918C35.9193 21.0262 35.9579 21.3735 36.0351 21.7336C36.1251 22.0938 36.273 22.3961 36.4788 22.6405C36.6846 22.872 36.9805 22.9878 37.3664 22.9878C37.7651 22.9878 38.0674 22.872 38.2732 22.6405C38.479 22.3961 38.6205 22.0938 38.6977 21.7336C38.7748 21.3735 38.8134 21.0262 38.8134 20.6918C38.8134 20.1901 38.7877 19.7721 38.7363 19.4376C38.6848 19.0904 38.6334 18.7366 38.5819 18.3765C38.5305 18.0163 38.5047 17.5725 38.5047 17.0452C38.5047 16.5821 38.5819 16.1319 38.7363 15.6946C38.8906 15.2573 39.1607 14.8971 39.5466 14.6141C39.9325 14.3183 40.4663 14.1704 41.148 14.1704C41.6883 14.1704 42.1385 14.3054 42.4986 14.5755C42.8588 14.8456 43.1482 15.2058 43.3668 15.656C43.5984 16.1062 43.772 16.6078 43.8878 17.1609C44.0036 17.714 44.0807 18.2864 44.1193 18.8781C44.1579 19.4569 44.1772 20.01 44.1772 20.5374C44.1772 21.4764 44.0357 22.3768 43.7527 23.2386C43.4697 24.0875 43.0388 24.8464 42.46 25.5153C41.8941 26.1842 41.1866 26.7115 40.3377 27.0974C39.4887 27.4833 38.4983 27.6762 37.3664 27.6762Z" fill="#DBFF9D"/>
<path d="M50.9898 27.6762C50.6039 27.6762 50.2309 27.5926 49.8708 27.4254C49.5235 27.2453 49.2341 26.9881 49.0025 26.6536C48.7839 26.3192 48.6745 25.9076 48.6745 25.4188C48.6745 25.0973 48.681 24.8078 48.6938 24.5506C47.4719 24.229 46.475 23.6245 45.7032 22.7369C44.9443 21.8365 44.5649 20.6339 44.5649 19.1289C44.5649 17.6369 44.8157 16.4471 45.3174 15.5595C45.819 14.6591 46.5843 14.2089 47.6134 14.2089C48.3208 14.2089 48.8868 14.4212 49.3112 14.8456C49.7486 15.2701 49.9672 15.8682 49.9672 16.64C49.9672 17.0645 49.9351 17.4889 49.8708 17.9134C49.8193 18.3379 49.7936 18.6787 49.7936 18.936C49.7936 19.4505 49.8836 19.8557 50.0637 20.1515C50.2438 20.4474 50.5525 20.5953 50.9898 20.5953C51.44 20.5953 51.7487 20.4474 51.9159 20.1515C52.096 19.8557 52.1861 19.4505 52.1861 18.936C52.1861 18.6787 52.1539 18.3315 52.0896 17.8941C52.0381 17.4439 52.0124 17.0195 52.0124 16.6207C52.0124 15.8618 52.2311 15.2701 52.6684 14.8456C53.1058 14.4212 53.6781 14.2089 54.3856 14.2089C55.0802 14.2089 55.6526 14.4083 56.1028 14.8071C56.553 15.2058 56.8874 15.7589 57.1061 16.4664C57.3247 17.1738 57.4341 17.9842 57.4341 18.8974C57.4341 20.5567 57.0289 21.8494 56.2185 22.7755C55.421 23.6888 54.3792 24.2933 53.0929 24.5892C53.1058 24.8336 53.1122 25.1101 53.1122 25.4188C53.1122 25.9205 53.0093 26.3385 52.8035 26.6729C52.5977 27.0074 52.334 27.2582 52.0124 27.4254C51.6908 27.5926 51.35 27.6762 50.9898 27.6762Z" fill="#DBFF9D"/>
</g>
</svg>
